/* XPM */
static char * square_large_xpm[] = {
"32 32 15 1",
" 	c None",
".	c #040406",
"+	c #000000",
"@	c #020204",
"#	c #4D5184",
"$	c #6A71B7",
"%	c #676EB2",
"&	c #949DFF",
"*	c #8F98F7",
"=	c #424672",
"-	c #5C629F",
";	c #595F9A",
">	c #030406",
",	c #010102",
"'	c #030305",
"                                ",
" .++++++++++++++++++++++++++++@ ",
" +#$$$$$$$$$$$$$$$$$$$$$$$$$$%+ ",
" +$&&&&&&&&&&&&&&&&&&&&&&&&&&*+ ",
" +$&&&&&&&&&&&&&&&&&&&&&&&&&&*+ ",
" +$&&&&&&&&&&&&&&&&&&&&&&&&&&*+ ",
" +$&&&&&&&&&&&&&&&&&&&&&&&&&&*+ ",
" +$&&&&&&&&&&&&&&&&&&&&&&&&&&*+ ",
" +$&&&&&&&&&&&&&&&&&&&&&&&&&&*+ ",
" +$&&&&&&&&&&&&&&&&&&&&&&&&&&*+ ",
" +$&&&&&&&&&&&&&&&&&&&&&&&&&&*+ ",
" +$&&&&&&&&&&&&&&&&&&&&&&&&&&*+ ",
" +$&&&&&&&&&&&&&&&&&&&&&&&&&&*+ ",
" +$&&&&&&&&&&&&&&&&&&&&&&&&&&*+ ",
" +$&&&&&&&&&&&&&&&&&&&&&&&&&&*+ ",
" +$&&&&&&&&&&&&&&&&&&&&&&&&&&*+ ",
" +$&&&&&&&&&&&&&&&&&&&&&&&&&&*+ ",
" +$&&&&&&&&&&&&&&&&&&&&&&&&&&*+ ",
" +$&&&&&&&&&&&&&&&&&&&&&&&&&&*+ ",
" +$&&&&&&&&&&&&&&&&&&&&&&&&&&*+ ",
" +$&&&&&&&&&&&&&&&&&&&&&&&&&&*+ ",
" +$&&&&&&&&&&&&&&&&&&&&&&&&&&*+ ",
" +$&&&&&&&&&&&&&&&&&&&&&&&&&&*+ ",
" +$&&&&&&&&&&&&&&&&&&&&&&&&&&*+ ",
" +$&&&&&&&&&&&&&&&&&&&&&&&&&&*+ ",
" +$&&&&&&&&&&&&&&&&&&&&&&&&&&*+ ",
" +$&&&&&&&&&&&&&&&&&&&&&&&&&&*+ ",
" +$&&&&&&&&&&&&&&&&&&&&&&&&&&*+ ",
" +$&&&&&&&&&&&&&&&&&&&&&&&&&&*+ ",
" +=--------------------------;+ ",
" >,,,,,,,,,,,,,,,,,,,,,,,,,,,,' ",
"                                "};
